<svg width="666" height="362" viewBox="0 0 666 362" fill="none" xmlns="http://www.w3.org/2000/svg">
<path d="M19.6009 351.749C19.6009 351.749 -13.2533 291.051 8.66665 224.752C68.792 42.8986 220.574 102.121 369.419 19.738C512.002 -59.1796 749.067 108.091 636.685 351.749" fill="#DCE6EF"/>
<path d="M490.692 257.511C491.241 257.288 491.8 257.065 492.358 256.859C494.316 258.386 496.404 259.759 498.594 260.96C511.967 269.117 528.794 269.117 542.168 260.96C544.366 259.767 546.445 258.386 548.403 256.859C548.962 257.074 549.52 257.288 550.07 257.511C539.685 246.034 542.786 224.623 542.786 224.623H497.975C497.975 224.623 501.076 246.034 490.692 257.511Z" fill="#997161"/>
<path d="M520.385 105.93C493.019 105.93 470.842 128.087 470.842 155.408V167.056C470.928 194.317 493.079 235.758 520.385 235.758C547.69 235.758 569.851 194.317 569.928 167.056V155.408C569.928 128.078 547.742 105.93 520.385 105.93Z" fill="#AF806B"/>
<path d="M454.479 115.537C456.085 119.843 458.834 123.635 461.952 126.971C463.137 128.25 464.511 129.442 464.941 131.192C465.37 132.925 465.559 134.683 466.066 136.416C466.916 139.392 467.758 142.352 468.608 145.328C469.321 147.885 470.112 150.441 470.79 153.023C471.254 151.29 471.709 149.54 471.984 147.756C472.396 145.123 473.101 143.313 474.956 141.305C477.473 138.595 480.848 136.416 484.55 135.773C490.623 134.692 497.151 135.661 503.241 136.193C511.452 136.913 519.672 136.038 527.875 136.759C535.786 137.454 543.851 138.14 551.298 141.065C553.935 142.103 557.276 143.175 559.286 145.277C559.956 145.98 560.386 146.83 560.66 147.73C560.738 149.643 560.858 151.453 560.995 153.152C561.03 153.495 561.055 153.821 561.081 154.147C561.081 154.147 561.081 154.164 561.081 154.181C562.945 174.528 568.502 179.366 568.502 179.366C572.677 160.872 571.973 145.997 570.667 136.828C570.822 136.33 570.933 135.815 570.985 135.301C571.268 132.384 571.285 129.296 571.225 126.362C571.096 120.521 570.452 114.533 568.502 108.992C567.386 105.775 565.934 102.721 564.053 99.8822C556.933 89.1425 544.298 83.747 531.886 81.9799C525.332 81.0535 518.719 81.3794 512.354 83.2323C506.152 85.0337 500.406 88.0531 494.282 90.0604C487.625 92.2392 480.78 92.9254 473.839 93.5345C468.978 93.9634 463.24 94.2893 458.868 96.8799C458.044 97.3603 457.279 97.935 456.566 98.5869C451.902 102.953 452.4 110.013 454.462 115.511L454.479 115.537Z" fill="#5C3A1D"/>
<path d="M561.004 153.16C561.004 153.512 561.047 153.829 561.09 154.155C561.064 153.829 561.038 153.495 561.004 153.16Z" fill="#F9E9A7"/>
<path d="M474.664 170.814C474.398 169.064 473.857 167.417 472.328 166.156C470.137 164.354 467.002 164.372 464.881 166.25C460.148 170.428 461.29 180.67 463.3 185.799C465.104 190.397 473.084 197.148 477.258 191.152L477.464 190.526C476.949 187.112 476.425 183.706 475.927 180.275C475.592 177.951 475.205 175.634 474.956 173.293C474.87 172.461 474.793 171.62 474.655 170.805L474.664 170.814Z" fill="#AF806B"/>
<path d="M565.075 170.814C565.342 169.064 565.883 167.417 567.412 166.156C569.602 164.354 572.737 164.372 574.859 166.25C579.591 170.428 578.449 180.67 576.439 185.799C574.635 190.397 566.656 197.148 562.481 191.152L562.275 190.526C562.791 187.112 563.314 183.706 563.813 180.275C564.148 177.951 564.534 175.634 564.783 173.293C564.869 172.461 564.946 171.62 565.084 170.805L565.075 170.814Z" fill="#AF806B"/>
<path d="M438.28 352.77H602.473C602.473 352.581 594.142 284.644 592.544 279.111C590.414 271.725 586.806 266.21 581.438 263.267C576.714 260.677 554.837 257.537 549.718 255.35C538.792 260.771 533.226 264.614 520.376 264.7C507.518 264.614 501.961 260.763 491.035 255.35C485.916 257.546 464.039 260.677 459.315 263.267C453.955 266.21 450.348 271.725 448.209 279.111C446.611 284.635 438.28 352.581 438.28 352.77Z" fill="#C9CED3"/>
<path d="M457.004 227.488C462.338 192.662 442.772 184.015 442.772 184.015C442.772 184.015 444.198 100.268 378.386 100.268C312.575 100.268 314 184.015 314 184.015C314 184.015 294.425 192.662 299.768 227.488C299.768 227.488 268.099 258.524 304.157 295.486C310.839 301.645 319.97 304.433 328.963 303.061L363.277 297.802C373.284 296.267 383.471 296.25 393.486 297.751L430.12 303.249C438.434 304.493 446.834 301.594 452.606 295.486C488.665 258.524 456.996 227.488 456.996 227.488H457.004Z" fill="#A57B58"/>
<path d="M414.762 256.353L414.101 269.898H342.01V256.345C342.01 256.345 357.11 246.188 358.717 224.032H398.975C400.581 246.188 414.762 256.353 414.762 256.353Z" fill="#DDAB89"/>
<path d="M383.909 127.066C407.306 127.066 420.757 141.992 420.757 165.358V175.317C420.688 198.623 401.749 234.059 378.395 234.059C355.04 234.059 336.101 198.623 336.032 175.317V165.358C336.032 153.803 347.155 157.175 359.455 153.083C376.033 147.567 384.588 130.995 383.926 127.066H383.909Z" fill="#EEBC97"/>
<path d="M441.5 278.416C439.379 271.073 435.436 265.643 430.102 262.718C425.395 260.136 420.096 257.752 414.994 255.573C403.991 261.028 391.588 264.091 378.472 264.091C365.356 264.091 352.953 261.02 341.95 255.573C336.848 257.752 331.548 260.136 326.841 262.718C321.499 265.643 317.556 271.073 315.443 278.416C313.854 283.915 296.306 351.552 296.306 351.749H460.474C460.474 351.561 443.089 283.923 441.5 278.416Z" fill="#DBC8CE"/>
<path d="M231.998 346.74H149.051C147.704 346.74 146.611 347.83 146.611 349.176C146.611 350.521 147.704 351.612 149.051 351.612H231.998C233.345 351.612 234.437 350.521 234.437 349.176C234.437 347.83 233.345 346.74 231.998 346.74Z" fill="#6F96AF"/>
<path d="M226.312 283.391H154.745V346.74H226.312V283.391Z" fill="#8AADC1"/>
<path d="M315.538 107.971H65.5109C59.102 107.971 53.9067 113.16 53.9067 119.56V271.802C53.9067 278.203 59.102 283.391 65.5109 283.391H315.538C321.947 283.391 327.142 278.203 327.142 271.802V119.56C327.142 113.16 321.947 107.971 315.538 107.971Z" fill="#6F96AF"/>
<path fill-rule="evenodd" clip-rule="evenodd" d="M190.52 180.43C194.523 180.43 197.761 177.187 197.761 173.181C197.761 169.175 194.514 165.933 190.52 165.933C186.526 165.933 183.279 169.175 183.279 173.181C183.279 177.187 186.526 180.43 190.52 180.43ZM172.165 183.449C168.299 182.411 164.331 184.71 163.292 188.579C162.253 192.447 164.546 196.419 168.411 197.457L177.902 200.005C181.072 200.854 183.271 203.727 183.271 207.004V218.49C183.271 222.496 186.517 225.739 190.512 225.739C194.506 225.739 197.752 222.496 197.752 218.49V207.004C197.752 203.727 199.951 200.854 203.121 200.005L212.612 197.457C216.477 196.419 218.77 192.447 217.731 188.579C216.692 184.71 212.724 182.42 208.858 183.449L192.375 187.867C191.147 188.193 189.85 188.193 188.622 187.867L172.139 183.449H172.165Z" fill="#153967"/>
<path d="M130.936 258.301C131.391 259.536 136.424 274.264 126.1 291.626C119.83 302.168 110.304 302.872 109.377 302.915C108.827 302.16 103.459 294.277 107.822 282.817C115.011 263.945 129.69 258.721 130.936 258.309V258.301Z" fill="#C3DDB4"/>
<path d="M130.936 258.301L109.377 302.906C110.313 302.863 119.83 302.168 126.1 291.618C136.424 274.256 131.391 259.536 130.936 258.292V258.301Z" fill="#9DBA8C"/>
<path d="M108.707 304.279L109.377 302.898L109.325 302.82C108.913 303.781 108.715 304.27 108.715 304.27L108.707 304.279Z" fill="white" stroke="black" stroke-width="3.5" stroke-linecap="round" stroke-linejoin="round"/>
<path d="M69.6939 258.301C69.2387 259.536 64.2053 274.264 74.5297 291.626C80.7999 302.168 90.3255 302.872 91.2531 302.915C91.8028 302.16 97.1712 294.277 92.8078 282.817C85.6185 263.945 70.9479 258.721 69.6939 258.309V258.301Z" fill="#C3DDB4"/>
<path d="M92.8078 282.808C85.6185 263.936 70.948 258.712 69.6939 258.301C82.4405 282.619 89.3205 298.197 91.3047 302.838C92.0691 301.748 97.0595 293.976 92.8078 282.817V282.808Z" fill="#9DBA8C"/>
<path d="M100.315 249.191C98.7774 250.683 81.006 268.663 83.8319 301.328C85.5498 321.169 98.9749 328.906 100.315 329.627C101.646 328.906 115.08 321.177 116.798 301.328C119.624 268.663 101.852 250.675 100.315 249.191Z" fill="#C3DDB4"/>
<path d="M100.315 249.191V329.627C101.646 328.906 115.08 321.177 116.798 301.328C119.624 268.663 101.852 250.675 100.315 249.191Z" fill="#9DBA8C"/>
<path d="M138.357 299.192C141.698 287.715 140.565 277.052 140.565 277.052C140.565 277.052 134.123 279.917 117.949 290.357C105.374 298.471 101.483 312.702 100.315 316.537H115.097C125.842 316.537 135.359 309.494 138.357 299.192Z" fill="#C3DDB4"/>
<path d="M140.565 277.052C140.565 277.052 123.936 309.854 100.315 316.545H115.097C125.842 316.545 135.359 309.503 138.357 299.2C141.698 287.723 140.565 277.061 140.565 277.061V277.052Z" fill="#9DBA8C"/>
<path d="M62.2727 299.192C58.9315 287.715 60.0653 277.052 60.0653 277.052C60.0653 277.052 66.5073 279.917 82.681 290.357C95.2558 298.471 99.1467 312.702 100.315 316.537H85.5326C74.7874 316.537 65.2704 309.494 62.2727 299.192Z" fill="#C3DDB4"/>
<path d="M100.315 316.545C99.1467 312.711 95.2558 298.48 82.681 290.365C66.4987 279.926 60.0652 277.061 60.0652 277.061C60.0652 277.061 76.6942 309.872 100.315 316.554V316.545Z" fill="#9DBA8C"/>
<path d="M111 351.586H89.6211C83.9522 351.586 79.0906 347.546 78.0513 341.979L73.4646 317.369H127.148L122.561 341.979C121.522 347.546 116.66 351.586 110.991 351.586H111Z" fill="#F4BF9C"/>
<path d="M128.093 322.893H72.537C70.2866 322.893 68.457 321.074 68.457 318.818C68.457 316.571 70.278 314.744 72.537 314.744H128.093C130.343 314.744 132.173 316.562 132.173 318.818C132.173 321.066 130.352 322.893 128.093 322.893Z" fill="#CD9C7C"/>
<path d="M651.037 351.329H5.34257C2.39195 351.329 0 353.718 0 356.664C0 359.611 2.39195 362 5.34257 362H651.037C653.988 362 656.38 359.611 656.38 356.664C656.38 353.718 653.988 351.329 651.037 351.329Z" fill="#A07D60"/>
</svg>
