<svg width="111" height="36" viewBox="0 0 111 36" fill="none" xmlns="http://www.w3.org/2000/svg">
<path fill-rule="evenodd" clip-rule="evenodd" d="M11.4944 9.06061C13.168 9.06061 14.5247 7.70389 14.5247 6.0303C14.5247 4.35671 13.168 3 11.4944 3C9.82078 3 8.46406 4.35671 8.46406 6.0303C8.46406 7.70389 9.82078 9.06061 11.4944 9.06061ZM3.81535 10.3225C2.19879 9.88937 0.537164 10.8487 0.104007 12.4653C-0.32915 14.0818 0.630191 15.7435 2.24676 16.1766L6.21806 17.2407C7.54286 17.5957 8.46406 18.7962 8.46406 20.1678V24.9697C8.46406 26.6433 9.82078 28 11.4944 28C13.168 28 14.5247 26.6433 14.5247 24.9697V20.1678C14.5247 18.7963 15.4459 17.5957 16.7707 17.2407L20.742 16.1766C22.3585 15.7435 23.3179 14.0818 22.8847 12.4653C22.4516 10.8487 20.7899 9.88937 19.1734 10.3225L12.2787 12.17C11.7649 12.3076 11.2239 12.3076 10.7101 12.17L3.81535 10.3225Z" fill="#153967"/>
<path d="M35.568 15.464V21.896C35.568 22.344 35.672 22.672 35.88 22.88C36.104 23.072 36.472 23.168 36.984 23.168H38.544V26H36.432C33.6 26 32.184 24.624 32.184 21.872V15.464H30.6V12.704H32.184V9.416H35.568V12.704H38.544V15.464H35.568ZM53.3207 19.064C53.3207 19.544 53.2887 19.976 53.2247 20.36H43.5047C43.5847 21.32 43.9207 22.072 44.5127 22.616C45.1047 23.16 45.8327 23.432 46.6967 23.432C47.9447 23.432 48.8327 22.896 49.3607 21.824H52.9847C52.6007 23.104 51.8647 24.16 50.7767 24.992C49.6887 25.808 48.3527 26.216 46.7687 26.216C45.4887 26.216 44.3367 25.936 43.3127 25.376C42.3047 24.8 41.5127 23.992 40.9367 22.952C40.3767 21.912 40.0967 20.712 40.0967 19.352C40.0967 17.976 40.3767 16.768 40.9367 15.728C41.4967 14.688 42.2807 13.888 43.2887 13.328C44.2967 12.768 45.4567 12.488 46.7687 12.488C48.0327 12.488 49.1607 12.76 50.1527 13.304C51.1607 13.848 51.9367 14.624 52.4807 15.632C53.0407 16.624 53.3207 17.768 53.3207 19.064ZM49.8407 18.104C49.8247 17.24 49.5127 16.552 48.9047 16.04C48.2967 15.512 47.5527 15.248 46.6727 15.248C45.8407 15.248 45.1367 15.504 44.5607 16.016C44.0007 16.512 43.6567 17.208 43.5287 18.104H49.8407ZM54.9092 19.304C54.9092 17.96 55.1732 16.768 55.7012 15.728C56.2452 14.688 56.9732 13.888 57.8852 13.328C58.8132 12.768 59.8452 12.488 60.9812 12.488C61.9732 12.488 62.8372 12.688 63.5732 13.088C64.3252 13.488 64.9252 13.992 65.3732 14.6V12.704H68.7572V26H65.3732V24.056C64.9412 24.68 64.3412 25.2 63.5732 25.616C62.8212 26.016 61.9492 26.216 60.9572 26.216C59.8372 26.216 58.8132 25.928 57.8852 25.352C56.9732 24.776 56.2452 23.968 55.7012 22.928C55.1732 21.872 54.9092 20.664 54.9092 19.304ZM65.3732 19.352C65.3732 18.536 65.2132 17.84 64.8932 17.264C64.5732 16.672 64.1412 16.224 63.5972 15.92C63.0532 15.6 62.4692 15.44 61.8452 15.44C61.2212 15.44 60.6452 15.592 60.1172 15.896C59.5892 16.2 59.1572 16.648 58.8212 17.24C58.5012 17.816 58.3412 18.504 58.3412 19.304C58.3412 20.104 58.5012 20.808 58.8212 21.416C59.1572 22.008 59.5892 22.464 60.1172 22.784C60.6612 23.104 61.2372 23.264 61.8452 23.264C62.4692 23.264 63.0532 23.112 63.5972 22.808C64.1412 22.488 64.5732 22.04 64.8932 21.464C65.2132 20.872 65.3732 20.168 65.3732 19.352ZM88.5508 12.512C90.1828 12.512 91.4948 13.016 92.4868 14.024C93.4948 15.016 93.9988 16.408 93.9988 18.2V26H90.6388V18.656C90.6388 17.616 90.3748 16.824 89.8468 16.28C89.3188 15.72 88.5988 15.44 87.6868 15.44C86.7748 15.44 86.0468 15.72 85.5028 16.28C84.9748 16.824 84.7108 17.616 84.7108 18.656V26H81.3508V18.656C81.3508 17.616 81.0868 16.824 80.5588 16.28C80.0308 15.72 79.3108 15.44 78.3988 15.44C77.4708 15.44 76.7348 15.72 76.1908 16.28C75.6628 16.824 75.3988 17.616 75.3988 18.656V26H72.0388V12.704H75.3988V14.312C75.8308 13.752 76.3828 13.312 77.0548 12.992C77.7428 12.672 78.4948 12.512 79.3108 12.512C80.3508 12.512 81.2788 12.736 82.0948 13.184C82.9108 13.616 83.5428 14.24 83.9908 15.056C84.4228 14.288 85.0468 13.672 85.8628 13.208C86.6948 12.744 87.5908 12.512 88.5508 12.512ZM103.091 26.216C101.811 26.216 100.659 25.936 99.6353 25.376C98.6113 24.8 97.8033 23.992 97.2113 22.952C96.6353 21.912 96.3473 20.712 96.3473 19.352C96.3473 17.992 96.6433 16.792 97.2353 15.752C97.8433 14.712 98.6673 13.912 99.7073 13.352C100.747 12.776 101.907 12.488 103.187 12.488C104.467 12.488 105.627 12.776 106.667 13.352C107.707 13.912 108.523 14.712 109.115 15.752C109.723 16.792 110.027 17.992 110.027 19.352C110.027 20.712 109.715 21.912 109.091 22.952C108.483 23.992 107.651 24.8 106.595 25.376C105.555 25.936 104.387 26.216 103.091 26.216ZM103.091 23.288C103.699 23.288 104.267 23.144 104.795 22.856C105.339 22.552 105.771 22.104 106.091 21.512C106.411 20.92 106.571 20.2 106.571 19.352C106.571 18.088 106.235 17.12 105.563 16.448C104.907 15.76 104.099 15.416 103.139 15.416C102.179 15.416 101.371 15.76 100.715 16.448C100.075 17.12 99.7553 18.088 99.7553 19.352C99.7553 20.616 100.067 21.592 100.691 22.28C101.331 22.952 102.131 23.288 103.091 23.288Z" fill="#153967"/>
</svg>
